<?xml version="1.0" encoding="utf-8"?>
<!-- Generator: Adobe Illustrator 16.0.0, SVG Export Plug-In . SVG Version: 6.00 Build 0)  -->
<!DOCTYPE svg PUBLIC "-//W3C//DTD SVG 1.1//EN" "http://www.w3.org/Graphics/SVG/1.1/DTD/svg11.dtd">
<svg version="1.1" id="MAK_Logo" xmlns="http://www.w3.org/2000/svg" xmlns:xlink="http://www.w3.org/1999/xlink" x="0px" y="0px"
	 width="366px" height="350px" viewBox="0 0 366 350" enable-background="new 0 0 366 350" xml:space="preserve">
<path fill="#0181CA" d="M183.006,2.339c-39.81,22.763-79.717,45.525-119.962,68.537L3,105.04c0,69.178,0,0.244,0,70.061
	c60-34.777,120.171-69.366,180-103.955c59.828,34.588,120,69.177,180,103.955c0-69.816,0-0.883,0-70.061l-60.038-34.164
	c-40.245-23.012-80.101-45.774-119.911-68.537"/>
<path fill="#01AFFE" d="M182.986,208.988C123.157,174.4,63,139.812,3,105.034c0,69.815,0,138.824,0,208.001
	c20,11.439,40,22.85,60,34.625c0-46.564,0-92.305,0-138.401c40,23.011,80.177,45.774,119.986,68.536
	C222.795,255.033,263,232.27,303,209.259c0,46.097,0,91.837,0,138.401c20-11.775,40-23.186,60-34.625c0-69.177,0-138.186,0-208.001
	C303,139.812,242.815,174.4,182.986,208.988z"/>
</svg>
